<svg xmlns="http://www.w3.org/2000/svg" viewBox="0 0 226 52">
<g>
	<g>
		<linearGradient id="SVGID_1_" gradientUnits="userSpaceOnUse" x1="112.6" y1="52" x2="112.6" y2="15.4">
			<stop offset="3.675339e-03" style="stop-color:#29A2B8"/>
			<stop offset="0.1543" style="stop-color:#39A8BB"/>
			<stop offset="0.6942" style="stop-color:#5EBEC5"/>
			<stop offset="1" style="stop-color:#69C9CA"/>
		</linearGradient>
		<path fill="url(#SVGID_1_)" d="M224.5 39.7c-0.7-2.2-1.8-4-3.3-5.5c-1.3-1.4-2.9-2.5-4.6-3.4c-1.1-0.6-2.2-1.1-3.4-1.5 c1-0.4 6.9-2.8 6.9-2.8l-2.8-3.1c-1.1-1.2-2.4-2.3-3.7-3.2c-1.3-0.8-2.6-1.5-3.9-2.1c-1.3-0.6-2.7-1-4.1-1.2 c-1.3-0.3-2.7-0.4-4-0.4c-0.2 0-0.3 0-0.5 0c-1.4 0-2.8 0.2-4.1 0.5c-1.6 0.4-2.9 1-4.1 1.8c-1 0.7-1.8 1.6-2.4 2.7 c-0.3-0.9-0.6-1.9-0.9-2.8l-0.6-2.1c0 0-5.6-0.1-7.3-0.1l-4.1-0.1l1.1 3.8c0.8 2.9 1.6 5.8 2.5 8.6c-3.7-3.9-7.3-7.8-11-11.7 l-0.9-0.9l-1.3 0c-1.8 0-3.6-0.1-5.4-0.1l-3.8-0.1l0.8 3.6c0.1 0.4 0.2 0.8 0.2 1.1c-1-1.1-2.3-2-3.6-2.7 c-1.5-0.8-3.3-1.5-5.1-1.9c-1.8-0.4-3.6-0.6-5.4-0.6l-0.2 0c-1.7 0-3.4 0.2-5.1 0.6c-1.8 0.4-3.4 1.1-4.8 1.9 c-0.7 0.4-1.3 0.9-1.9 1.5l-2.4-3.7l-1.7 0c-5.5 0-11 0-16.4 0c-1.8 0-3.6 0-5.4 0l-3 0l0 0.3c-0.9-0.4-1.9-0.7-3-0.7 c-1.5 0-2.9 0.5-4.1 1.4c-0.9 0.7-1.5 1.5-1.8 2.4c-0.4-0.4-0.8-0.7-1.3-1c-1.2-0.8-2.7-1.4-4.4-1.8c-1.5-0.3-3.1-0.5-4.7-0.5 l-0.2 0c-4 0-8.1 0.1-12.1 0.1l-2.6 0l-0.4 2.5c-0.2 1.1-0.3 2.2-0.5 3.3c-0.8-1.4-1.9-2.6-3.3-3.5c-1.4-0.9-2.9-1.5-4.7-1.9 c-1.6-0.4-3.2-0.5-4.9-0.5c-0.1 0-0.3 0-0.4 0c-1.8 0-3.6 0.3-5.4 0.7c-1.9 0.4-3.6 1.1-5.2 1.9c-1.3 0.7-2.5 1.5-3.5 2.5 c0.1-0.2 0.1-0.4 0.2-0.6l1.1-3.9l-4.1 0.1c-1.7 0-3.4 0.1-5.1 0.1l-2.2 0l-0.6 2c-1 3.1-1.9 6.1-2.9 9.2 c-2.6 0.1-5.3 0.1-7.9 0.2c0.9-2.4 1.8-4.8 2.7-7.2l1.5-4.1L20.6 17c-1.7 0-3.4 0.1-5.1 0.1l-2 0.1L12.7 19 C9 28.6 5.2 38.3 1.6 47.8L0 52l4.5-0.1c1.9-0.1 3.8-0.1 5.7-0.2l2.1-0.1l0.7-1.9c1.3-3.6 2.7-7.3 4-10.9c2.8-0.1 5.7-0.1 8.5-0.2 c-0.9 3-1.9 5.9-2.8 8.9l-1.2 3.9l4.2-0.1c1.9 0 3.8-0.1 5.7-0.1l2.2-0.1l0.6-2.1c0.5-1.8 1.1-3.6 1.6-5.5c0 0.1 0 0.1 0.1 0.2 c0.6 1.8 1.7 3.3 3.3 4.5c1.4 1.1 3.1 1.9 5.1 2.4c1.7 0.4 3.5 0.7 5.4 0.7c0.1 0 0.3 0 0.4 0c2 0 4-0.3 6-0.8 c2-0.5 3.9-1.3 5.7-2.3c1.8-1 3.3-2.4 4.6-3.9c0 0 0.1-0.1 0.1-0.1c-0.2 1-0.3 2.1-0.5 3.1l-0.5 3.4l3.6 0c1.9 0 3.8 0 5.7-0.1 l2.6 0l0.3-2.5c0.4-3 0.8-6.1 1.2-9.1c2.7 3.5 5.3 6.9 7.9 10.4l0.9 1.2l1.5 0c2.3 0 4.6 0 6.9 0l1.3 0l0.8 0c1.8 0 3.6 0 5.4 0 l2.4 0l0 0l2 0c1.7 0 3.5 0 5.2 0c6.5 0 13 0 19.5 0.1l3.3 0l-0.3-4.5c0.8 0.7 1.6 1.4 2.5 2c1.6 1 3.5 1.8 5.5 2.3 c2 0.5 4 0.8 6 0.8l0.3 0c1.9 0 3.8-0.2 5.6-0.7c2-0.5 3.7-1.3 5.2-2.3c1.6-1.1 2.8-2.6 3.6-4.3c0-0.1 0.1-0.2 0.1-0.3 c0.4 1.7 0.7 3.4 1.1 5.1l0.5 2.3l2.4 0c1.9 0 3.8 0.1 5.7 0.1l3.8 0.1l-0.8-3.7c-0.7-3.3-1.5-6.6-2.3-9.9 c3.8 4.2 7.7 8.5 11.6 12.8l0.9 1l1.3 0c2.2 0 4.4 0.1 6.6 0.1l4.1 0.1l-1.2-3.9c-0.1-0.3-0.2-0.5-0.2-0.8 c0.1 0.1 0.1 0.1 0.2 0.2c1.4 1.1 2.9 2 4.4 2.8c1.5 0.8 3.1 1.4 4.7 1.8c1.6 0.4 3.2 0.7 4.8 0.7c0.2 0 0.4 0 0.7 0 c1.6 0 3.1-0.2 4.6-0.5c1.8-0.4 3.4-1.1 4.6-2.1c1.4-1.1 2.4-2.5 2.9-4.1C225.4 43.6 225.2 41.7 224.5 39.7z M47 39.2 c0 0 0-0.1 0-0.2c0.9-3.6 1.8-7.1 2.7-10.7c0.1-0.2 0.2-0.4 0.3-0.6c0.3-0.3 0.7-0.6 1.2-0.8c0.6-0.3 1.3-0.5 2-0.6 c0.8-0.2 1.6-0.2 2.3-0.3l0.2 0c0.7 0 1.4 0.1 2 0.2c0.6 0.1 1 0.2 1.4 0.4c0.1 0.1 0.2 0.1 0.2 0.2c-0.7 3.6-1.4 7.1-2.1 10.7 c-0.1 0.3-0.2 0.5-0.4 0.7c-0.3 0.4-0.8 0.7-1.3 0.9c-0.6 0.3-1.4 0.6-2.2 0.7c-0.8 0.2-1.7 0.3-2.5 0.3l-0.2 0 c-0.7 0-1.4-0.1-2.1-0.2c-0.6-0.1-1.1-0.3-1.5-0.5C47.2 39.3 47.1 39.2 47 39.2z M142.1 26.7c0.1-0.1 0.2-0.2 0.4-0.3 c0.4-0.2 0.9-0.4 1.5-0.5c0.7-0.1 1.4-0.2 2.1-0.2l0.1 0c0.8 0 1.6 0.1 2.3 0.2c0.7 0.1 1.3 0.3 1.8 0.6c0.4 0.2 0.8 0.4 1.1 0.7 c0.1 0.1 0.2 0.3 0.2 0.4c0.6 3.6 1.2 7.1 1.8 10.7c0 0.1 0 0.2 0 0.2c0 0.1-0.2 0.2-0.5 0.4c-0.4 0.2-1 0.4-1.6 0.6 c-0.7 0.2-1.5 0.2-2.2 0.2l-0.1 0c-0.8 0-1.6-0.1-2.4-0.3c-0.8-0.2-1.5-0.4-2-0.7c-0.5-0.2-0.8-0.5-1.1-0.8 c-0.1-0.2-0.2-0.3-0.2-0.5C142.9 33.8 142.5 30.3 142.1 26.7C142.1 26.7 142.1 26.7 142.1 26.7z M80.5 26.1c1.5 0 4.6 0 4.6 0 c1.2 0 2 0.2 2.4 0.4c0 0.1 0 0.2 0 0.3c-0.1 0.9-0.4 1-0.5 1.1c-0.7 0.4-1.7 0.6-2.9 0.6c-1.3 0-2.6 0-3.9 0 C80.3 27.7 80.4 26.9 80.5 26.1z M91.7 37c1.2-0.5 2.3-1.2 3.3-2c0.3-0.2 0.5-0.5 0.8-0.7c-0.1 2.4-0.2 4.8-0.4 7.3 C94.1 40 92.9 38.5 91.7 37z M107.2 25.9l0.6 0c1.8 0 3.6 0 5.5 0c1.6 0 3.1 0 4.7 0c-3.7 4.3-7.5 8.6-11.2 13 C106.9 34.6 107 30.2 107.2 25.9z M120.3 39.6c3.5-4.2 7-8.5 10.5-12.7c0 0.1 0 0.2 0 0.3c0.3 3.6 0.6 7.2 1 10.8 c0.1 0.6 0.1 1.1 0.3 1.6C128.1 39.6 124.2 39.6 120.3 39.6z M210.5 40.9c-1.2 0-2.4-0.4-3.7-1c-1.2-0.6-2.2-1.3-3.1-2.4 c0.8 0.2 1.5 0.3 2.3 0.5l0.1 0c1 0.2 2 0.4 3 0.6c0.8 0.2 1.6 0.4 2.2 0.7c0.5 0.2 0.9 0.5 1.3 0.8c0.1 0.1 0.2 0.2 0.3 0.5 c-0.1 0-0.3 0.1-0.6 0.1c-0.5 0.1-1 0.1-1.5 0.1C210.7 40.9 210.6 40.9 210.5 40.9z M203 26.7c1.1 0 2.2 0.2 3.3 0.6 c0.4 0.2 0.9 0.4 1.3 0.7c-0.3-0.1-0.6-0.1-1-0.2c-0.9-0.1-1.7-0.3-2.6-0.5c-0.7-0.2-1.4-0.4-2-0.6c0 0 0 0 0 0c0.2 0 0.5 0 0.7 0 C202.9 26.7 202.9 26.7 203 26.7z M194.1 33.4c0.8 0.7 1.7 1.3 2.7 1.8c1 0.5 2.1 1 3.2 1.4c-1.4 0.6-2.9 1.3-4.3 1.9 C195.1 36.8 194.6 35.1 194.1 33.4z"/>
		<g>
			<linearGradient id="SVGID_2_" gradientUnits="userSpaceOnUse" x1="52.1" y1="47.7" x2="52.1" y2="15.2">
				<stop offset="0" style="stop-color:#137378"/>
				<stop offset="1" style="stop-color:#2E9C95"/>
			</linearGradient>
			<path fill="url(#SVGID_2_)" d="M67.7 22.4L67.7 22.4L67.7 22.4c-0.1-0.2-0.1-0.4-0.2-0.6l-1.5-4.2l-0.5 1.5 c-0.2-0.2-0.5-0.4-0.8-0.6c-1.1-0.7-2.4-1.3-3.9-1.6c-0.4-0.1-0.8-0.2-1.2-0.2l0.2-0.9l-5.2-0.6h-6.4l-3.3 1.9L43 20.4l0.3 0.9 c-0.1 0.1-0.3 0.2-0.4 0.4c-1.1 1.2-1.8 2.6-2.3 4.1c-1 3.7-2 7.5-3 11.2c-0.1 0.2-0.1 0.4-0.1 0.6l-1.4-0.2l1.5 4.2c0 0 0 0 0 0 c0 0 0 0.1 0 0.1l0.1 0.2l0 0c0.5 1.3 1.3 2.3 2.3 3.1c1.1 0.9 2.5 1.6 4.2 2c1.6 0.4 3.4 0.6 5.2 0.6c1.8 0 3.6-0.3 5.5-0.8 c1.8-0.5 3.5-1.2 5-2.1c1.5-0.9 2.8-2.1 3.9-3.4c1.1-1.4 1.7-2.9 2-4.6c0.6-3.7 1.3-7.4 1.9-11.2C68 24.4 68 23.3 67.7 22.4z M61.7 25.6c-0.7 3.7-1.4 7.4-2.1 11c-0.1 0.8-0.5 1.4-1 2c-0.6 0.6-1.2 1.1-2 1.5c-0.8 0.4-1.8 0.7-2.8 1c-2 0.5-4.1 0.5-6 0.1 c-0.9-0.2-1.7-0.5-2.3-0.9c-0.6-0.4-1-0.8-1.3-1.4c-0.3-0.5-0.3-1.2-0.1-1.9c0.9-3.7 1.8-7.4 2.8-11.1c0.2-0.7 0.5-1.3 1.1-1.8 c0.5-0.5 1.2-1 2-1.3c0.8-0.4 1.6-0.6 2.6-0.8c0.9-0.2 1.9-0.3 2.8-0.3c0.9 0 1.8 0.1 2.7 0.2c0.8 0.1 1.6 0.4 2.2 0.7 c0.6 0.3 1 0.7 1.3 1.2C61.7 24.3 61.8 24.9 61.7 25.6z"/>
			<linearGradient id="SVGID_3_" gradientUnits="userSpaceOnUse" x1="101.1" y1="46.7" x2="101.1" y2="13.6">
				<stop offset="0" style="stop-color:#137378"/>
				<stop offset="1" style="stop-color:#2E9C95"/>
			</linearGradient>
			<path fill="url(#SVGID_3_)" d="M102.2 16c-0.1 0-0.2 0-0.2 0l0.1-1.6L98.2 14l0.4 5.3l0 0c0 0.8 0.3 1.5 0.9 2.1 c0.7 0.6 1.5 0.9 2.5 0.9c0.6 0 0.7-0.1 1.2-0.3l-0.4 1.8c-1.4 0-2.8 0-4.1 0c-0.3 6-0.6 12-0.9 18l-0.2 0.2l0 4.8 c2.1 0 4.2 0 6.3 0c0.2-7.7 0.5-17.4 0.7-25.1v-8l-1.7 2.5C102.8 16 102.5 16 102.2 16z"/>
			<linearGradient id="SVGID_4_" gradientUnits="userSpaceOnUse" x1="119.7" y1="46.7" x2="119.7" y2="11.6">
				<stop offset="0" style="stop-color:#137378"/>
				<stop offset="1" style="stop-color:#2E9C95"/>
			</linearGradient>
			<path fill="url(#SVGID_4_)" d="M132.9 41c-0.3 0-0.5 0-0.8 0l-1.3-0.9l-0.3 0.9c-5.2 0-10.4 0-15.6 0 c5.7-7.1 11.4-14.2 17.1-21.2l0-5.1l-3.4 1l-0.5 0.8c-0.8 0-1.6 0-2.3 0l0.9-1.2l-18.9-3.5l-0.3 4.8c0 1.7 0 3.5-0.1 5.2 c5.4 0 10.9 0 16.3 0c-4.8 5.6-9.5 11.3-14.2 16.9l-3.1-0.3l-0.3 4.4c0.6 1.3 1.1 2.7 1.7 4c8.6 0 17.1 0 25.7 0.1l0.1-4.8 l-0.5-0.3C133 41.4 132.9 41.2 132.9 41z"/>
			<linearGradient id="SVGID_5_" gradientUnits="userSpaceOnUse" x1="148.7" y1="47.3" x2="148.7" y2="14.4">
				<stop offset="0" style="stop-color:#137378"/>
				<stop offset="1" style="stop-color:#2E9C95"/>
			</linearGradient>
			<path fill="url(#SVGID_5_)" d="M160.7 25.4c-0.3-1.6-0.9-2.9-1.9-4.1c-0.4-0.5-0.9-0.9-1.3-1.3l0.8-1c0-0.1-4.7-3.4-4.7-3.4 l-6.2-1.2l-5.8 0.5l-3.4 2.8l-3.5 0.5l-1 4.7c0 0.1 0 0.2 0 0.2l0 0.1l0 0c-0.1 0.6-0.1 1.3-0.1 2.1c0.3 3.7 0.7 7.4 1 11.1 c0.2 1.7 0.7 3.3 1.7 4.6c0.9 1.4 2.2 2.5 3.6 3.4c1.4 0.9 3.1 1.6 4.8 2.1c1.8 0.5 3.6 0.7 5.4 0.7c1.8 0 3.6-0.2 5.2-0.6 c1.7-0.4 3.1-1.1 4.4-2c1.2-0.9 2.2-2 2.7-3.4c0.2-0.5 0.4-1.1 0.5-1.6l0 0l1-4.7l-1.2 0.7C162 32.3 161.3 28.8 160.7 25.4z M156.1 38.5c-0.3 0.6-0.8 1-1.5 1.4c-0.7 0.4-1.5 0.7-2.4 0.9c-1.8 0.4-4 0.4-6-0.1c-1-0.2-1.9-0.5-2.7-0.9 c-0.8-0.4-1.4-0.9-1.9-1.5c-0.5-0.6-0.8-1.2-0.8-2c-0.4-3.7-0.8-7.3-1.2-11c-0.1-0.7 0-1.3 0.4-1.7c0.3-0.5 0.8-0.9 1.4-1.2 c0.6-0.3 1.4-0.6 2.3-0.7c0.9-0.2 1.8-0.2 2.7-0.2c0.9 0 1.9 0.1 2.8 0.3c0.9 0.2 1.8 0.4 2.5 0.8c0.7 0.3 1.4 0.8 1.9 1.3 c0.5 0.5 0.8 1.1 0.9 1.8c0.6 3.7 1.2 7.4 1.8 11C156.5 37.4 156.4 38 156.1 38.5z"/>
			<linearGradient id="SVGID_6_" gradientUnits="userSpaceOnUse" x1="209" y1="48.5" x2="209" y2="14.8">
				<stop offset="0" style="stop-color:#137378"/>
				<stop offset="1" style="stop-color:#2E9C95"/>
			</linearGradient>
			<path fill="url(#SVGID_6_)" d="M223 39.7c0-0.2-0.1-0.3-0.1-0.5c-0.6-1.9-1.5-3.4-2.7-4.7c-0.1-0.1-0.1-0.1-0.2-0.2v-2.6 l-2.6-2.2l-11.3-3.9l-5.4-2.4l-0.3-0.4c0.4-0.2 0.8-0.3 1.3-0.4c0.6-0.1 1.4-0.2 2.1-0.2c1.4 0 2.8 0.3 4.1 0.7 c1.3 0.4 2.5 1.3 3.6 2.6c0.1 0.1 0.1 0.2 0.2 0.2c1.6-0.7 3.3-1.4 4.9-2.1l2.1-5.1l-8-3l-6.5-0.9l-3.8 1l0.4 1.3 c-0.9 0.1-1.7 0.2-2.5 0.4c-0.5 0.1-0.9 0.3-1.3 0.4l-1.1-1.6l-2.2 4.1c-0.2 0.3-0.4 0.6-0.5 0.9l0 0l0 0c0 0.1 0 0.1-0.1 0.2 c-0.4 1-0.4 2.2-0.1 3.6c0.5 1.5 1.2 2.7 2.2 3.8c1 1 2.2 1.9 3.5 2.6c1.3 0.7 2.7 1.3 4.2 1.7c1.5 0.4 3 0.8 4.4 1.1 c1.1 0.2 2.1 0.4 3.1 0.6c1 0.2 1.9 0.5 2.7 0.9c0.8 0.3 1.5 0.8 2 1.3c0.5 0.5 0.9 1.2 1.2 2c0.2 0.6 0.2 1.1 0 1.5 c-0.2 0.4-0.5 0.8-0.9 1c-0.5 0.3-1.1 0.5-1.8 0.6c-0.7 0.1-1.5 0.2-2.4 0.2c-1.6 0-3.2-0.5-4.8-1.3c-0.6-0.3-1.1-0.6-1.6-0.9 l0.4-1.1l-5.4-3.6l-3 4.4c0.1 0.1 0.2 0.3 0.3 0.4c1 1.3 2.2 2.4 3.4 3.5c1.3 1 2.6 1.9 4 2.6c1.4 0.7 2.8 1.3 4.2 1.6 c1.4 0.4 2.9 0.6 4.2 0.6c1.6 0 3.2-0.1 4.6-0.4c1.4-0.3 2.7-0.9 3.6-1.7c0.4-0.3 0.7-0.7 1-1l0 0l0 0c0.3-0.4 0.5-0.8 0.7-1.2 l2.3-4L223 39.7z"/>
			<linearGradient id="SVGID_7_" gradientUnits="userSpaceOnUse" x1="180.3" y1="47.6" x2="180.3" y2="12">
				<stop offset="0" style="stop-color:#137378"/>
				<stop offset="1" style="stop-color:#2E9C95"/>
			</linearGradient>
			<path fill="url(#SVGID_7_)" d="M194.5 40.5c-2-6.9-4.1-13.8-6.1-20.7l0 0l0 0c-0.2-0.8-0.5-1.6-0.7-2.3c0-0.1-0.1-0.2-0.1-0.3 c-0.3 0-0.5 0-0.8 0l-2.8-4.8l-2.5 4.7c1.5 5.5 3.1 11.1 4.6 16.6c0.7 1.7 1.3 3.3 2 5c-1.4-1.6-2.7-3.3-4.1-4.9 c-2.2-2.4-4.4-4.8-6.6-7.3l1.8-0.2L170 16.2l-0.3 2c-0.4-0.4-0.8-0.9-1.2-1.3c-0.8 0-1.6 0-2.4 0l-1.8-4.8l-1.9 4.7 c2.1 10.1 4.1 20.2 6.2 30.3c2.2 0 4.4 0.1 6.6 0.1l1.2-4.8l-2.7-2.1c-0.8-3.6-1.6-7.3-2.4-10.9c-0.5-1.4-1-2.9-1.6-4.3 c1.1 1.4 2.2 2.7 3.2 4.1c5.4 6.1 10.8 12.2 16.2 18.3c2.5 0.1 5 0.1 7.4 0.2l1.7-4.8L194.5 40.5L194.5 40.5z"/>
			<linearGradient id="SVGID_8_" gradientUnits="userSpaceOnUse" x1="82.1" y1="46.9" x2="82.1" y2="14.7">
				<stop offset="0" style="stop-color:#137378"/>
				<stop offset="1" style="stop-color:#2E9C95"/>
			</linearGradient>
			<path fill="url(#SVGID_8_)" d="M90.4 38.4c-1.1-1.4-2.2-2.8-3.3-4.2c1-0.2 2-0.5 3-0.8c1.2-0.4 2.2-1 3.1-1.8 c0.9-0.7 1.6-1.7 2.1-2.7c0.5-1 0.8-2.3 0.9-3.7c0-1-0.1-1.9-0.3-2.7l0 0L95 17.6l-0.8 1.7c-0.3-0.3-0.7-0.7-1.1-0.9 c-0.6-0.4-1.2-0.7-1.9-1V15c0 0-15.9-0.3-16.1-0.3s-0.8 1.8-0.8 1.8l0.3 0.1c-0.6 0-1.3 0-1.9 0c-1.3 8.2-2.5 16.4-3.7 24.6 l-1.6 0.9l0.7 4.8c2.2 0 4.4-0.1 6.6-0.1c0.5-4.1 1.1-8.1 1.6-12.2c1.1 0 2.3 0 3.4 0c3 4 6 8.1 9 12.1c2.7 0 5.4 0 8.1 0 l-1.4-4.8L90.4 38.4z M77.2 28c0.3-2.1 0.5-4.1 0.8-6.2c2.3 0 4.5 0 6.8-0.1c1.7 0 3 0.3 4 0.8c0.9 0.5 1.3 1.4 1.2 2.8 c0 0.3-0.1 0.5-0.1 0.7L77.2 28z"/>
			<linearGradient id="SVGID_9_" gradientUnits="userSpaceOnUse" x1="20.1" y1="48.4" x2="20.1" y2="12.4">
				<stop offset="0" style="stop-color:#137378"/>
				<stop offset="1" style="stop-color:#2E9C95"/>
			</linearGradient>
			<path fill="url(#SVGID_9_)" d="M37.1 12.4l-5.3 0.1l-3.7 12.1l-10.2 0.3l2.8-7.3l-3.2-4.7l-3.6 5.5l0.3 0.6c-3 7.9-6 15.8-9 23.7 l-4.6 0.9L3 48.4c2.2-0.1 4.4-0.1 6.7-0.2c1.6-4.4 3.1-8.8 4.7-13.3c4.7-0.1 9.3-0.3 14-0.4c-0.8 2.6-1.6 5.3-2.4 7.9L22.5 43 l1.9 4.8c2.2-0.1 4.4-0.1 6.6-0.2c2.9-10.2 5.8-20.3 8.7-30.5L37.1 12.4z"/>
		</g>
		<g>
			<g>
				<linearGradient id="SVGID_10_" gradientUnits="userSpaceOnUse" x1="18.8" y1="43.6" x2="18.8" y2="12.4">
					<stop offset="0" style="stop-color:#B8DDB4"/>
					<stop offset="0.3733" style="stop-color:#BCDEB2"/>
					<stop offset="0.7163" style="stop-color:#C8E2AD"/>
					<stop offset="1" style="stop-color:#D7E7A6"/>
				</linearGradient>
				<path fill="url(#SVGID_10_)" d="M6.5 43.4c-2 0.1-3.9 0.1-5.9 0.2C4.4 33.4 8.2 23.2 12.1 13c1.8 0 3.5-0.1 5.3-0.1 c-1.4 4-2.9 8-4.3 12c5-0.1 10-0.3 15-0.4c1.2-4 2.4-8 3.7-11.9c1.8 0 3.5-0.1 5.3-0.1c-2.9 10.1-5.8 20.3-8.7 30.4 c-2 0-3.9 0.1-5.9 0.1c1.4-4.5 2.8-9.1 4.1-13.6c-5.1 0.1-10.2 0.3-15.3 0.4C9.7 34.3 8.1 38.9 6.5 43.4z"/>
			</g>
			<g>
				<linearGradient id="SVGID_11_" gradientUnits="userSpaceOnUse" x1="51" y1="42.9" x2="51" y2="11.7">
					<stop offset="0" style="stop-color:#B8DDB4"/>
					<stop offset="0.3733" style="stop-color:#BCDEB2"/>
					<stop offset="0.7163" style="stop-color:#C8E2AD"/>
					<stop offset="1" style="stop-color:#D7E7A6"/>
				</linearGradient>
				<path fill="url(#SVGID_11_)" d="M39.1 21c0.4-1.5 1.2-2.9 2.2-4.1c1.1-1.1 2.3-2.1 3.7-2.9c1.4-0.8 2.9-1.3 4.6-1.7 c1.7-0.4 3.3-0.6 4.9-0.6c1.6 0 3.2 0.1 4.7 0.5c1.5 0.3 2.8 0.9 3.9 1.6c1.1 0.7 1.9 1.6 2.5 2.8c0.6 1.1 0.7 2.5 0.4 4 c-0.7 3.8-1.3 7.6-2 11.5c-0.3 1.7-1 3.2-2 4.6c-1.1 1.4-2.3 2.5-3.9 3.4c-1.5 0.9-3.2 1.6-5 2.1c-1.8 0.5-3.7 0.8-5.5 0.8 c-1.8 0-3.6-0.2-5.2-0.6c-1.6-0.4-3-1.1-4.1-2c-1.1-0.9-1.9-2-2.4-3.3c-0.5-1.3-0.5-2.8 0-4.5C37 28.7 38.1 24.8 39.1 21z M41.7 32.4c-0.2 0.9-0.2 1.6 0.2 2.3c0.3 0.6 0.8 1.2 1.5 1.6c0.7 0.4 1.5 0.7 2.5 0.9c1 0.2 2 0.3 3.1 0.3 c1.1 0 2.2-0.2 3.3-0.4c1.1-0.2 2.1-0.6 2.9-1c0.9-0.4 1.6-1 2.2-1.6c0.6-0.7 1-1.4 1.1-2.3c0.7-3.8 1.4-7.6 2.2-11.4 c0.2-0.8 0.1-1.5-0.3-2.1c-0.4-0.6-0.9-1.1-1.5-1.4c-0.7-0.4-1.5-0.6-2.4-0.8c-0.9-0.2-1.9-0.2-2.9-0.2c-1 0-2 0.1-3 0.3 c-1 0.2-1.9 0.5-2.8 0.9c-0.8 0.4-1.6 0.9-2.1 1.5c-0.6 0.6-1 1.3-1.2 2.1C43.6 24.8 42.6 28.6 41.7 32.4z"/>
			</g>
			<g>
				<linearGradient id="SVGID_12_" gradientUnits="userSpaceOnUse" x1="81.4" y1="42.1" x2="81.4" y2="11.7">
					<stop offset="0" style="stop-color:#B8DDB4"/>
					<stop offset="0.3733" style="stop-color:#BCDEB2"/>
					<stop offset="0.7163" style="stop-color:#C8E2AD"/>
					<stop offset="1" style="stop-color:#D7E7A6"/>
				</linearGradient>
				<path fill="url(#SVGID_12_)" d="M79 29.5c-1.4 0-2.8 0-4.1 0c-0.6 4.2-1.1 8.4-1.7 12.5c-2 0-3.9 0-5.9 0.1 c1.5-10.1 3.1-20.2 4.6-30.3c4.2 0 8.3-0.1 12.5-0.1c1.6 0 3 0.1 4.4 0.4c1.3 0.3 2.5 0.8 3.5 1.5c1 0.7 1.7 1.5 2.2 2.6 c0.5 1.1 0.8 2.4 0.7 4c-0.1 1.4-0.4 2.6-0.9 3.6c-0.5 1-1.2 1.9-2.1 2.7c-0.9 0.7-1.9 1.3-3 1.8c-1.2 0.4-2.4 0.8-3.7 0.9 c3.3 4.2 6.6 8.4 9.9 12.6c-2.4 0-4.8 0-7.2 0C85.2 37.8 82.1 33.6 79 29.5z M83.1 25.1c1.9 0 3.5-0.4 4.7-1.2 c1.2-0.7 1.9-1.9 2-3.6c0.1-1.6-0.3-2.7-1.4-3.3c-1.1-0.6-2.5-0.9-4.3-0.9c-2.5 0-4.9 0-7.4 0.1c-0.4 3-0.8 5.9-1.2 8.9 C78 25.1 80.5 25.1 83.1 25.1z"/>
			</g>
			<g>
				<linearGradient id="SVGID_13_" gradientUnits="userSpaceOnUse" x1="101.1" y1="41.9" x2="101.1" y2="11.3">
					<stop offset="0" style="stop-color:#B8DDB4"/>
					<stop offset="0.3733" style="stop-color:#BCDEB2"/>
					<stop offset="0.7163" style="stop-color:#C8E2AD"/>
					<stop offset="1" style="stop-color:#D7E7A6"/>
				</linearGradient>
				<path fill="url(#SVGID_13_)" d="M98.2 14c0-0.8 0.4-1.4 1-1.9c0.6-0.5 1.4-0.8 2.3-0.8c0.9 0 1.7 0.2 2.3 0.8 c0.6 0.5 0.9 1.1 0.8 1.9c0 0.8-0.3 1.4-1 1.9c-0.6 0.5-1.4 0.8-2.4 0.8c-0.9 0-1.6-0.3-2.2-0.8C98.4 15.3 98.2 14.7 98.2 14z M103.8 19.1c-0.2 7.6-0.4 15.2-0.7 22.8c-1.9 0-3.7 0-5.6 0c0.4-7.6 0.7-15.2 1.1-22.8C100.4 19.1 102.1 19.1 103.8 19.1z"/>
			</g>
			<g>
				<linearGradient id="SVGID_14_" gradientUnits="userSpaceOnUse" x1="119.8" y1="41.9" x2="119.8" y2="11.6">
					<stop offset="0" style="stop-color:#B8DDB4"/>
					<stop offset="0.3733" style="stop-color:#BCDEB2"/>
					<stop offset="0.7163" style="stop-color:#C8E2AD"/>
					<stop offset="1" style="stop-color:#D7E7A6"/>
				</linearGradient>
				<path fill="url(#SVGID_14_)" d="M130.2 11.7c0.6 1 1.2 1.9 1.8 2.9c-6 7.4-12 14.8-18 22.3c6.3 0 12.7 0 19 0.1 c0.1 1.7 0.2 3.3 0.4 5c-8.6 0-17.1-0.1-25.7-0.1c-0.5-1.2-1-2.4-1.5-3.6c6.2-7.4 12.4-14.8 18.6-22.1c-5.8 0-11.5 0-17.3 0 c0-1.5 0-3 0.1-4.5C115.2 11.6 122.7 11.6 130.2 11.7z"/>
			</g>
			<g>
				<linearGradient id="SVGID_15_" gradientUnits="userSpaceOnUse" x1="149.2" y1="42.5" x2="149.2" y2="11.4">
					<stop offset="0" style="stop-color:#B8DDB4"/>
					<stop offset="0.3733" style="stop-color:#BCDEB2"/>
					<stop offset="0.7163" style="stop-color:#C8E2AD"/>
					<stop offset="1" style="stop-color:#D7E7A6"/>
				</linearGradient>
				<path fill="url(#SVGID_15_)" d="M134.6 20.3c-0.1-1.5 0.1-2.9 0.8-4c0.7-1.1 1.6-2 2.7-2.8c1.1-0.7 2.5-1.3 4-1.6 c1.5-0.4 3.1-0.5 4.7-0.5c1.6 0 3.3 0.2 4.9 0.6c1.6 0.4 3.1 1 4.5 1.7c1.4 0.8 2.5 1.7 3.5 2.8c1 1.1 1.6 2.5 1.9 4 c0.7 3.8 1.4 7.7 2.1 11.5c0.3 1.7 0.2 3.2-0.4 4.5c-0.6 1.3-1.5 2.4-2.7 3.3c-1.2 0.9-2.7 1.5-4.3 2c-1.7 0.4-3.4 0.7-5.3 0.6 c-1.8 0-3.7-0.3-5.5-0.7c-1.8-0.5-3.4-1.2-4.9-2.1c-1.4-0.9-2.6-2-3.6-3.4c-0.9-1.3-1.5-2.9-1.6-4.6 C135.2 27.9 134.9 24.1 134.6 20.3z M141.2 31.7c0.1 0.9 0.4 1.6 1 2.3c0.5 0.7 1.2 1.2 2.1 1.6c0.8 0.4 1.8 0.8 2.9 1 c1.1 0.2 2.1 0.4 3.2 0.4c1.1 0 2.1-0.1 3.1-0.3c1-0.2 1.9-0.5 2.6-1c0.7-0.4 1.3-0.9 1.7-1.6c0.4-0.6 0.5-1.4 0.3-2.3 c-0.6-3.8-1.2-7.6-1.9-11.3c-0.1-0.8-0.5-1.5-1.1-2.1c-0.6-0.6-1.2-1.1-2.1-1.5c-0.8-0.4-1.7-0.7-2.7-0.8c-1-0.2-2-0.3-3-0.3 c-1 0-2 0.1-2.9 0.2c-0.9 0.2-1.8 0.4-2.5 0.8c-0.7 0.4-1.2 0.8-1.6 1.4c-0.4 0.6-0.5 1.3-0.5 2.1 C140.4 24.2 140.8 28 141.2 31.7z"/>
			</g>
			<g>
				<linearGradient id="SVGID_16_" gradientUnits="userSpaceOnUse" x1="181.3" y1="42.8" x2="181.3" y2="12">
					<stop offset="0" style="stop-color:#B8DDB4"/>
					<stop offset="0.3733" style="stop-color:#BCDEB2"/>
					<stop offset="0.7163" style="stop-color:#C8E2AD"/>
					<stop offset="1" style="stop-color:#D7E7A6"/>
				</linearGradient>
				<path fill="url(#SVGID_16_)" d="M170.5 42.3c-2-10.1-4.1-20.2-6.2-30.3c1.9 0 3.7 0.1 5.6 0.1c5.3 5.7 10.6 11.5 15.8 17.3 c1.8 2.1 3.5 4.3 5.3 6.4c0.1 0 0.2-0.1 0.3-0.1c-0.9-2.3-1.8-4.5-2.7-6.8c-1.5-5.5-3-11-4.6-16.5c1.8 0 3.5 0.1 5.3 0.1 c3 10.1 6 20.3 9 30.4c-2.3-0.1-4.6-0.1-6.9-0.2c-5.5-6.2-11-12.5-16.5-18.7c-1.5-1.9-2.9-3.7-4.4-5.6c-0.1 0-0.2 0-0.3 0.1 c0.7 2 1.5 4.1 2.2 6.1c1.3 5.9 2.6 11.9 4 17.8C174.4 42.4 172.4 42.3 170.5 42.3z"/>
			</g>
			<g>
				<linearGradient id="SVGID_17_" gradientUnits="userSpaceOnUse" x1="210.7" y1="43.8" x2="210.7" y2="12.4">
					<stop offset="0" style="stop-color:#B8DDB4"/>
					<stop offset="0.3733" style="stop-color:#BCDEB2"/>
					<stop offset="0.7163" style="stop-color:#C8E2AD"/>
					<stop offset="1" style="stop-color:#D7E7A6"/>
				</linearGradient>
				<path fill="url(#SVGID_17_)" d="M201.1 20.5c0.2 0.6 0.6 1.1 1.1 1.5c0.5 0.4 1.2 0.8 1.9 1.1c0.8 0.3 1.6 0.5 2.5 0.7 c0.9 0.2 1.8 0.4 2.8 0.6c1.6 0.3 3.1 0.7 4.8 1.1c1.6 0.4 3.2 1 4.6 1.8c1.5 0.8 2.8 1.8 3.9 3c1.2 1.2 2.1 2.8 2.7 4.6 c0.6 1.6 0.7 2.9 0.3 4c-0.3 1.1-1 2.1-1.9 2.8c-1 0.7-2.1 1.3-3.6 1.6c-1.4 0.3-3 0.5-4.6 0.4c-1.4 0-2.8-0.3-4.3-0.6 c-1.4-0.4-2.9-0.9-4.3-1.7c-1.4-0.7-2.7-1.6-4-2.6c-1.3-1-2.4-2.2-3.4-3.5c1.5-0.7 3-1.4 4.5-2c1.3 1.6 2.8 2.8 4.5 3.6 c1.7 0.8 3.4 1.3 5.1 1.3c0.9 0 1.7 0 2.5-0.2c0.8-0.1 1.4-0.4 2-0.7c0.5-0.3 0.9-0.7 1.1-1.3c0.2-0.5 0.2-1.1 0-1.8 c-0.3-0.9-0.7-1.6-1.3-2.2c-0.6-0.6-1.4-1-2.2-1.4c-0.9-0.4-1.8-0.7-2.8-0.9c-1-0.2-2.1-0.5-3.2-0.7c-1.5-0.3-3-0.7-4.5-1.1 c-1.5-0.4-2.9-1-4.2-1.7c-1.3-0.7-2.5-1.6-3.5-2.6c-1-1-1.7-2.2-2.2-3.7c-0.3-1.3-0.3-2.4 0.1-3.4c0.4-1 1-1.8 1.9-2.4 c0.9-0.6 1.9-1.1 3.1-1.4c1.2-0.3 2.5-0.4 4-0.4c1.2 0 2.4 0.2 3.7 0.4c1.2 0.2 2.4 0.6 3.6 1.1c1.2 0.5 2.4 1.2 3.5 1.9 c1.1 0.8 2.2 1.7 3.2 2.9c-1.4 0.6-2.8 1.2-4.2 1.8c-1.2-1.4-2.5-2.3-3.9-2.8c-1.4-0.5-2.8-0.7-4.3-0.8c-0.8 0-1.6 0-2.3 0.2 c-0.7 0.1-1.3 0.4-1.8 0.6c-0.5 0.3-0.9 0.7-1.1 1.1C200.9 19.3 200.9 19.9 201.1 20.5z"/>
			</g>
		</g>
	</g>
	<g>
		<g>
			<path fill="#FAFBFB" d="M110.1 0.5c0.4 0 0.6 0.1 0.6 0.1l1.4 4.3c0 0-0.2 0.1-0.5 0.1c-0.3 0-0.5-0.1-0.5-0.1L110.8 4h-1.5 L109 4.9c0 0-0.2 0.1-0.5 0.1c-0.3 0-0.5-0.1-0.5-0.1l1.4-4.3C109.4 0.6 109.7 0.5 110.1 0.5z M110 1.4c0 0 0 0.3-0.2 0.7 l-0.4 1.1h1.1l-0.4-1.1C110.1 1.8 110 1.4 110 1.4L110 1.4z"/>
			<path fill="#FAFBFB" d="M113.9 0.4c0.8 0 1.3 0.2 1.3 0.2c0 0.3-0.1 0.5-0.2 0.7c0 0-0.4-0.1-0.9-0.1c-0.5 0-0.8 0.2-0.8 0.5 c0 0.3 0.5 0.4 1 0.6c0.5 0.2 1.1 0.5 1.1 1.3c0 0.9-0.5 1.4-1.7 1.4c-0.9 0-1.5-0.3-1.5-0.3c0-0.3 0.1-0.6 0.2-0.7 c0 0 0.6 0.2 1.2 0.2c0.5 0 0.7-0.2 0.7-0.5c0-0.3-0.3-0.4-0.6-0.5c-0.6-0.2-1.4-0.4-1.4-1.4C112.3 1 112.8 0.4 113.9 0.4z"/>
			<path fill="#FAFBFB" d="M116 0.6c0 0 0.2-0.1 0.5-0.1c0.3 0 0.5 0.1 0.5 0.1v3.6h1.7c0 0.1 0.1 0.3 0.1 0.4c0 0.1 0 0.3-0.1 0.4 H116V0.6z"/>
			<path fill="#FAFBFB" d="M120.9 0.5c0.4 0 0.6 0.1 0.6 0.1l1.4 4.3c0 0-0.2 0.1-0.5 0.1c-0.3 0-0.5-0.1-0.5-0.1L121.6 4h-1.5 l-0.3 0.9c0 0-0.2 0.1-0.5 0.1c-0.3 0-0.5-0.1-0.5-0.1l1.4-4.3C120.3 0.6 120.5 0.5 120.9 0.5z M120.8 1.4c0 0 0 0.3-0.2 0.7 l-0.4 1.1h1.1L121 2.2C120.9 1.8 120.9 1.4 120.8 1.4L120.8 1.4z"/>
			<path fill="#FAFBFB" d="M124.5 2.6c-0.2-0.5-0.4-1-0.4-1h0c0 0 0.1 0.5 0.1 1.2v2.1c0 0-0.1 0.1-0.4 0.1c-0.3 0-0.4-0.1-0.4-0.1 V0.6c0 0 0.2-0.1 0.6-0.1s0.6 0.1 0.6 0.1l1 2.2c0.2 0.5 0.4 1.1 0.4 1.1h0c0 0-0.1-0.6-0.1-1.2V0.6c0 0 0.2-0.1 0.4-0.1 c0.3 0 0.4 0.1 0.4 0.1v4.3c0 0-0.2 0.1-0.6 0.1c-0.4 0-0.6-0.1-0.6-0.1L124.5 2.6z"/>
		</g>
		<g>
			<path fill="#FAFBFB" d="M93 0.6c0 0 0.1 0.1 0.1 0.3c0 0.2-0.1 0.3-0.1 0.3h-1.1v3.6c0 0-0.1 0.1-0.4 0.1c-0.3 0-0.4-0.1-0.4-0.1 V1.3H90C90 1.3 90 1.2 90 1C90 0.8 90 0.6 90 0.6H93z"/>
			<path fill="#FAFBFB" d="M96.5 0.6c0 0.1 0.1 0.2 0.1 0.3c0 0.1 0 0.2-0.1 0.3h-1.7v1.2h1.4c0 0.1 0.1 0.2 0.1 0.3 c0 0.1 0 0.2-0.1 0.3h-1.4v1.3h1.8c0 0.1 0.1 0.2 0.1 0.3c0 0.1 0 0.2-0.1 0.3H94V0.6H96.5z"/>
			<path fill="#FAFBFB" d="M99.1 0.6c0.3 0 0.5 0.1 0.5 0.1l1.4 4.3c0 0-0.1 0.1-0.4 0.1c-0.3 0-0.4-0.1-0.4-0.1l-0.3-1h-1.7l-0.3 1 c0 0-0.1 0.1-0.4 0.1c-0.2 0-0.4-0.1-0.4-0.1l1.4-4.3C98.6 0.7 98.8 0.6 99.1 0.6z M99 1.4c0 0-0.1 0.3-0.2 0.7l-0.4 1.2h1.2 l-0.4-1.2C99.1 1.7 99.1 1.4 99 1.4L99 1.4z"/>
			<path fill="#FAFBFB" d="M105.4 0.6c0.3 0 0.5 0.1 0.5 0.1v4.3c0 0-0.1 0.1-0.4 0.1c-0.2 0-0.4-0.1-0.4-0.1V3.6c0-0.7 0-1.5 0-2h0 c-0.1 0.4-0.4 1-0.7 1.5L104.1 4c0 0-0.1 0-0.2 0c-0.1 0-0.2 0-0.2 0c-0.1-0.3-0.3-0.6-0.4-0.9c-0.3-0.5-0.6-1.2-0.7-1.6h0 c0.1 0.4 0.1 1.2 0.1 1.9v1.5c0 0-0.1 0.1-0.4 0.1c-0.2 0-0.3-0.1-0.3-0.1V0.7c0 0 0.2-0.1 0.5-0.1c0.2 0 0.5 0.1 0.5 0.1 l0.6 1.1c0.2 0.4 0.4 0.9 0.5 1.2h0c0.1-0.2 0.1-0.4 0.2-0.6c0.3-0.6 0.5-1.1 0.8-1.7C105.1 0.6 105.3 0.6 105.4 0.6z"/>
		</g>
		<path fill="#FAFBFB" d="M131.1 0.4c0.8 0 1.3 0.2 1.3 0.2c0 0.3-0.1 0.5-0.2 0.7c0 0-0.4-0.1-0.9-0.1c-0.5 0-0.8 0.2-0.8 0.5 c0 0.3 0.5 0.4 1 0.6c0.5 0.2 1.1 0.5 1.1 1.3c0 0.9-0.5 1.4-1.7 1.4c-0.9 0-1.5-0.3-1.5-0.3c0-0.3 0.1-0.6 0.2-0.7 c0 0 0.6 0.2 1.2 0.2c0.5 0 0.7-0.2 0.7-0.5c0-0.3-0.3-0.4-0.6-0.5c-0.6-0.2-1.4-0.4-1.4-1.4C129.5 1 130 0.4 131.1 0.4z"/>
		<g>
			<path fill="#FAFBFB" d="M127.9 0h0.8v0.6c0 0.6-0.2 0.9-0.5 1.2l-0.2-0.2c0.2-0.2 0.3-0.4 0.3-0.7l-0.4-0.1V0z"/>
		</g>
	</g>
	<g>
		<rect x="138.6" y="2.3" fill="#FAFBFB" width="51.1" height="0.4"/>
	</g>
	<g>
		<rect x="32.9" y="2.3" fill="#FAFBFB" width="51.1" height="0.4"/>
	</g>
</g>
</svg>
