<svg xmlns="http://www.w3.org/2000/svg" viewBox="0 0 155 30"><g><g><g><g><path fill="#0F1A27" d="M4.1 29.7c-1.4 0-2.7 0.1-4.1 0.1c2.6-7 5.3-14 7.9-20.9c1.2 0 2.4-0.1 3.6-0.1c-1 2.7-2 5.5-3 8.2 c3.4-0.1 6.9-0.2 10.3-0.3c0.8-2.7 1.7-5.4 2.5-8.2c1.2 0 2.4-0.1 3.6-0.1c-2 6.9-4 13.9-6 20.8c-1.4 0-2.7 0.1-4.1 0.1 c0.9-3.1 1.9-6.2 2.8-9.3c-3.5 0.1-7 0.2-10.5 0.3C6.3 23.5 5.2 26.6 4.1 29.7z"/></g><g><path fill="#0F1A27" d="M26.5 14.4c0.3-1.1 0.8-2 1.5-2.8c0.7-0.8 1.6-1.4 2.6-2c1-0.5 2-0.9 3.2-1.2C34.9 8.2 36 8 37.1 8 c1.1 0 2.2 0.1 3.2 0.3c1 0.2 1.9 0.6 2.7 1.1c0.8 0.5 1.3 1.1 1.7 1.9c0.4 0.8 0.5 1.7 0.3 2.7c-0.5 2.6-0.9 5.2-1.4 7.9 c-0.2 1.2-0.7 2.2-1.4 3.1c-0.7 0.9-1.6 1.7-2.7 2.3c-1.1 0.6-2.2 1.1-3.5 1.5c-1.3 0.3-2.5 0.5-3.8 0.5c-1.3 0-2.5-0.1-3.6-0.4 c-1.1-0.3-2.1-0.7-2.8-1.3c-0.8-0.6-1.3-1.4-1.6-2.3c-0.3-0.9-0.3-1.9 0-3.1C25.1 19.6 25.8 17 26.5 14.4z M28.3 22.2 c-0.1 0.6-0.1 1.1 0.1 1.5c0.2 0.4 0.6 0.8 1 1.1c0.5 0.3 1.1 0.5 1.7 0.6c0.7 0.1 1.4 0.2 2.1 0.2c0.8 0 1.5-0.1 2.2-0.3 c0.7-0.2 1.4-0.4 2-0.7c0.6-0.3 1.1-0.7 1.5-1.1c0.4-0.4 0.7-1 0.8-1.6c0.5-2.6 1-5.2 1.5-7.8c0.1-0.6 0-1-0.2-1.4 c-0.2-0.4-0.6-0.7-1.1-1c-0.5-0.2-1-0.4-1.6-0.5c-0.6-0.1-1.3-0.2-2-0.1c-0.7 0-1.4 0.1-2.1 0.2c-0.7 0.1-1.3 0.3-1.9 0.6 c-0.6 0.3-1.1 0.6-1.5 1c-0.4 0.4-0.7 0.9-0.8 1.4C29.6 17 28.9 19.6 28.3 22.2z"/></g><g><path fill="#0F1A27" d="M53.9 20.2c-0.9 0-1.9 0-2.8 0c-0.4 2.9-0.8 5.7-1.1 8.6c-1.4 0-2.7 0-4.1 0c1-6.9 2.1-13.8 3.2-20.7 c2.9 0 5.7-0.1 8.6-0.1c1.1 0 2.1 0.1 3 0.3c0.9 0.2 1.7 0.5 2.4 1c0.7 0.5 1.2 1.1 1.5 1.8c0.4 0.8 0.5 1.7 0.5 2.7 c-0.1 0.9-0.3 1.8-0.6 2.5c-0.4 0.7-0.8 1.3-1.4 1.8c-0.6 0.5-1.3 0.9-2.1 1.2c-0.8 0.3-1.6 0.5-2.5 0.6 c2.3 2.9 4.6 5.8 6.8 8.7c-1.6 0-3.3 0-4.9 0C58.2 25.9 56.1 23 53.9 20.2z M56.7 17.2c1.3 0 2.4-0.3 3.2-0.8 c0.8-0.5 1.3-1.3 1.4-2.5c0.1-1.1-0.2-1.8-1-2.2c-0.7-0.4-1.7-0.6-3-0.6c-1.7 0-3.4 0-5.1 0c-0.3 2-0.5 4.1-0.8 6.1 C53.2 17.2 55 17.2 56.7 17.2z"/></g><g><path fill="#0F1A27" d="M67.1 9.6c0-0.5 0.3-1 0.7-1.3c0.4-0.3 1-0.5 1.6-0.5c0.6 0 1.2 0.2 1.6 0.5c0.4 0.3 0.6 0.8 0.6 1.3 c0 0.5-0.2 1-0.7 1.3c-0.4 0.4-1 0.6-1.6 0.6c-0.6 0-1.1-0.2-1.5-0.5C67.3 10.5 67.1 10.1 67.1 9.6z M71 13.1 c-0.2 5.2-0.3 10.4-0.5 15.6c-1.3 0-2.6 0-3.8 0c0.2-5.2 0.5-10.4 0.8-15.6C68.6 13.1 69.8 13.1 71 13.1z"/></g><g><path fill="#0F1A27" d="M89.1 8c0.4 0.7 0.8 1.3 1.3 2c-4.1 5.1-8.3 10.2-12.4 15.3c4.4 0 8.7 0 13.1 0c0.1 1.1 0.2 2.3 0.3 3.4 c-5.9 0-11.8 0-17.6 0c-0.3-0.8-0.7-1.6-1-2.5c4.2-5.1 8.5-10.1 12.8-15.2c-4 0-7.9 0-11.9 0c0-1 0-2.1 0-3.1 C78.8 8 84 8 89.1 8z"/></g><g><path fill="#0F1A27" d="M92.1 13.9c-0.1-1.1 0.1-2 0.5-2.7c0.4-0.8 1.1-1.4 1.9-1.9c0.8-0.5 1.7-0.9 2.8-1.1 c1-0.2 2.1-0.4 3.3-0.3c1.1 0 2.3 0.1 3.4 0.4c1.1 0.3 2.1 0.7 3.1 1.2c0.9 0.5 1.7 1.2 2.4 1.9c0.7 0.8 1.1 1.7 1.3 2.8 c0.5 2.6 1 5.2 1.5 7.9c0.2 1.2 0.1 2.2-0.3 3.1c-0.4 0.9-1 1.7-1.8 2.3c-0.8 0.6-1.8 1.1-3 1.4c-1.2 0.3-2.4 0.4-3.6 0.4 c-1.3 0-2.5-0.2-3.7-0.5c-1.2-0.3-2.3-0.8-3.3-1.4c-1-0.6-1.8-1.4-2.4-2.3c-0.6-0.9-1-2-1.1-3.1C92.6 19.1 92.4 16.5 92.1 13.9z M96.7 21.8c0.1 0.6 0.3 1.1 0.7 1.6c0.4 0.4 0.9 0.8 1.4 1.1c0.6 0.3 1.2 0.5 2 0.7c0.7 0.2 1.5 0.3 2.2 0.3 c0.8 0 1.5-0.1 2.2-0.2c0.7-0.1 1.3-0.4 1.8-0.7c0.5-0.3 0.9-0.6 1.1-1.1c0.3-0.4 0.3-1 0.2-1.5c-0.4-2.6-0.9-5.2-1.3-7.8 c-0.1-0.6-0.3-1-0.7-1.4c-0.4-0.4-0.9-0.7-1.4-1c-0.6-0.3-1.2-0.5-1.8-0.6c-0.7-0.1-1.4-0.2-2-0.2c-0.7 0-1.3 0.1-2 0.2 c-0.6 0.1-1.2 0.3-1.7 0.6c-0.5 0.3-0.9 0.6-1.1 1c-0.3 0.4-0.4 0.9-0.3 1.4C96.1 16.6 96.4 19.2 96.7 21.8z"/></g><g><path fill="#0F1A27" d="M116.8 29c-1.4-6.9-2.8-13.8-4.3-20.8c1.3 0 2.6 0 3.8 0.1c3.6 3.9 7.3 7.9 10.9 11.8 c1.2 1.5 2.4 2.9 3.6 4.4c0.1 0 0.1 0 0.2-0.1c-0.6-1.6-1.2-3.1-1.9-4.7c-1-3.8-2.1-7.5-3.2-11.3c1.2 0 2.4 0 3.6 0.1 c2.1 6.9 4.1 13.9 6.2 20.8c-1.6 0-3.1-0.1-4.7-0.1c-3.8-4.3-7.5-8.5-11.4-12.8c-1-1.3-2-2.6-3-3.8c-0.1 0-0.1 0-0.2 0.1 c0.5 1.4 1 2.8 1.5 4.2c0.9 4.1 1.8 8.1 2.7 12.2C119.5 29 118.2 29 116.8 29z"/></g><g><path fill="#0F1A27" d="M137.9 14c0.1 0.4 0.4 0.7 0.7 1c0.4 0.3 0.8 0.5 1.3 0.7c0.5 0.2 1.1 0.4 1.7 0.5 c0.6 0.1 1.3 0.3 1.9 0.4c1.1 0.2 2.2 0.4 3.3 0.7c1.1 0.3 2.2 0.7 3.2 1.2c1 0.5 1.9 1.2 2.7 2.1c0.8 0.8 1.4 1.9 1.8 3.2 c0.4 1.1 0.5 2 0.2 2.8c-0.2 0.8-0.7 1.4-1.3 1.9c-0.7 0.5-1.5 0.9-2.5 1.1c-1 0.2-2 0.3-3.2 0.3c-1 0-1.9-0.2-2.9-0.4 c-1-0.3-2-0.6-2.9-1.1c-1-0.5-1.9-1.1-2.8-1.8c-0.9-0.7-1.7-1.5-2.4-2.4c1-0.5 2.1-0.9 3.1-1.4c0.9 1.1 1.9 1.9 3.1 2.5 c1.2 0.6 2.4 0.9 3.5 0.9c0.6 0 1.2 0 1.7-0.1c0.5-0.1 1-0.3 1.4-0.5c0.4-0.2 0.6-0.5 0.8-0.9c0.1-0.4 0.2-0.8 0-1.3 c-0.2-0.6-0.5-1.1-0.9-1.5c-0.4-0.4-0.9-0.7-1.5-1c-0.6-0.3-1.2-0.5-2-0.6c-0.7-0.2-1.5-0.3-2.2-0.5c-1-0.2-2.1-0.5-3.1-0.7 c-1-0.3-2-0.7-2.9-1.2c-0.9-0.5-1.7-1.1-2.4-1.8c-0.7-0.7-1.2-1.5-1.5-2.5c-0.2-0.9-0.2-1.7 0.1-2.3c0.3-0.7 0.7-1.2 1.3-1.7 c0.6-0.4 1.3-0.8 2.2-1c0.8-0.2 1.8-0.3 2.7-0.3c0.8 0 1.7 0.1 2.5 0.3c0.8 0.2 1.7 0.4 2.5 0.8c0.8 0.3 1.6 0.8 2.4 1.3 c0.8 0.5 1.5 1.2 2.2 2c-1 0.4-1.9 0.8-2.9 1.2c-0.8-0.9-1.7-1.6-2.7-1.9c-0.9-0.3-1.9-0.5-3-0.5c-0.6 0-1.1 0-1.6 0.1 c-0.5 0.1-0.9 0.2-1.2 0.4c-0.3 0.2-0.6 0.5-0.7 0.8C137.8 13.2 137.7 13.6 137.9 14z"/></g></g></g><g><g><path fill="#0F1A27" d="M75.3 0.4c0.3 0 0.4 0 0.4 0l1 3c0 0-0.1 0-0.4 0c-0.2 0-0.3 0-0.3 0l-0.2-0.6h-1.1l-0.2 0.6 c0 0-0.1 0-0.3 0c-0.2 0-0.3 0-0.3 0l1-3C74.9 0.4 75 0.4 75.3 0.4z M75.3 1c0 0 0 0.2-0.1 0.5l-0.2 0.8h0.7l-0.2-0.8 C75.3 1.2 75.3 1 75.3 1L75.3 1z"/><path fill="#0F1A27" d="M77.9 0.3c0.5 0 0.9 0.1 0.9 0.1c0 0.2-0.1 0.4-0.2 0.5c0 0-0.3-0.1-0.6-0.1c-0.4 0-0.5 0.1-0.5 0.3 c0 0.2 0.4 0.3 0.7 0.4C78.6 1.7 79 1.9 79 2.5c0 0.6-0.4 0.9-1.1 0.9c-0.6 0-1-0.2-1-0.2c0-0.2 0.1-0.4 0.2-0.5 c0 0 0.4 0.1 0.8 0.1c0.3 0 0.5-0.1 0.5-0.3c0-0.2-0.2-0.3-0.4-0.4c-0.4-0.1-1-0.3-1-0.9C76.8 0.7 77.2 0.3 77.9 0.3z"/><path fill="#0F1A27" d="M79.4 0.4c0 0 0.1 0 0.3 0c0.2 0 0.3 0 0.3 0v2.4h1.2c0 0.1 0 0.2 0 0.3c0 0.1 0 0.2 0 0.3h-1.9V0.4z"/><path fill="#0F1A27" d="M82.7 0.4c0.3 0 0.4 0 0.4 0l1 3c0 0-0.1 0-0.4 0c-0.2 0-0.3 0-0.3 0l-0.2-0.6h-1.1L82 3.3 c0 0-0.1 0-0.3 0c-0.2 0-0.3 0-0.3 0l1-3C82.3 0.4 82.5 0.4 82.7 0.4z M82.7 1c0 0 0 0.2-0.1 0.5l-0.2 0.8h0.7l-0.2-0.8 C82.7 1.2 82.7 1 82.7 1L82.7 1z"/><path fill="#0F1A27" d="M85.2 1.8C85.1 1.4 85 1.1 85 1.1h0c0 0 0 0.3 0 0.8v1.4c0 0-0.1 0-0.3 0c-0.2 0-0.3 0-0.3 0v-3 c0 0 0.1 0 0.4 0s0.4 0 0.4 0L86 1.9c0.2 0.4 0.3 0.8 0.3 0.8h0c0 0 0-0.4 0-0.9V0.4c0 0 0.1 0 0.3 0c0.2 0 0.3 0 0.3 0v3 c0 0-0.1 0-0.4 0c-0.3 0-0.4 0-0.4 0L85.2 1.8z"/></g><g><path fill="#0F1A27" d="M63.6 0.4c0 0 0 0.1 0 0.2c0 0.1 0 0.2 0 0.2h-0.7v2.5c0 0-0.1 0-0.3 0c-0.2 0-0.3 0-0.3 0V0.9h-0.8 c0 0 0-0.1 0-0.2c0-0.1 0-0.2 0-0.2H63.6z"/><path fill="#0F1A27" d="M65.9 0.4c0 0.1 0 0.1 0 0.2c0 0.1 0 0.2 0 0.2h-1.2v0.8h1c0 0.1 0 0.1 0 0.2c0 0.1 0 0.1 0 0.2h-1V3H66 c0 0.1 0 0.1 0 0.2c0 0.1 0 0.1 0 0.2h-1.8v-3H65.9z"/><path fill="#0F1A27" d="M67.7 0.4c0.2 0 0.3 0 0.3 0l1 2.9c0 0-0.1 0-0.3 0c-0.2 0-0.3 0-0.3 0l-0.2-0.7h-1.1l-0.2 0.7 c0 0-0.1 0-0.3 0c-0.2 0-0.2 0-0.2 0l1-2.9C67.4 0.5 67.6 0.4 67.7 0.4z M67.7 1c0 0 0 0.2-0.1 0.5l-0.3 0.8h0.8l-0.3-0.8 C67.8 1.2 67.7 1 67.7 1L67.7 1z"/><path fill="#0F1A27" d="M72.1 0.4c0.2 0 0.3 0 0.3 0v2.9c0 0-0.1 0-0.3 0c-0.2 0-0.3 0-0.3 0V2.5c0-0.5 0-1 0-1.4h0 c-0.1 0.3-0.3 0.7-0.5 1.1l-0.3 0.6c0 0-0.1 0-0.2 0c-0.1 0-0.1 0-0.1 0c-0.1-0.2-0.2-0.4-0.3-0.6c-0.2-0.4-0.4-0.8-0.5-1.1h0 c0.1 0.3 0 0.8 0 1.3v1c0 0-0.1 0-0.2 0c-0.1 0-0.2 0-0.2 0V0.5c0 0 0.1 0 0.3 0c0.2 0 0.3 0 0.3 0l0.4 0.8C70.8 1.5 71 1.8 71 2 h0c0-0.1 0.1-0.3 0.2-0.4c0.2-0.4 0.4-0.8 0.5-1.1C71.9 0.4 72 0.4 72.1 0.4z"/></g><path fill="#0F1A27" d="M89.8 0.3c0.5 0 0.9 0.1 0.9 0.1c0 0.2-0.1 0.4-0.2 0.5c0 0-0.3-0.1-0.6-0.1c-0.4 0-0.5 0.1-0.5 0.3 c0 0.2 0.4 0.3 0.7 0.4c0.4 0.1 0.7 0.3 0.7 0.9c0 0.6-0.4 0.9-1.1 0.9c-0.6 0-1-0.2-1-0.2c0-0.2 0.1-0.4 0.2-0.5 c0 0 0.4 0.1 0.8 0.1c0.3 0 0.5-0.1 0.5-0.3c0-0.2-0.2-0.3-0.4-0.4c-0.4-0.1-1-0.3-1-0.9C88.6 0.7 89 0.3 89.8 0.3z"/><g><path fill="#0F1A27" d="M87.5 0h0.5v0.4c0 0.4-0.1 0.7-0.4 0.8l-0.2-0.2c0.1-0.1 0.2-0.3 0.2-0.5l-0.2-0.1V0z"/></g></g><g>
<rect x="94.9" y="1.2" fill="#0F1A27" width="35.1" height="1"/></g><g><rect x="22.2" y="1.2" fill="#0F1A27" width="35.1" height="1"/></g></g></svg>
