<svg xmlns="http://www.w3.org/2000/svg" viewBox="0 0 105 30"><g><g><path fill="#FAFAFA" d="M10.6 11.7c0 0 0.1-0.1 0-0.2l-1.3-0.1l0.5-0.8l-0.9 0.8c0 0-0.1 0.3-0.1 1l-0.5 0.8 C8.2 13.2 9.4 12.6 10.6 11.7z"/><path fill="#FAFAFA" d="M11.5 0L0 3.6l0.4 13.9c0.1 3.3 1.4 6.4 5.2 8.8l5.8 3.6l5.8-3.6c3.8-2.4 5.1-5.5 5.2-8.8l0.4-13.9L11.5 0 z M17 22.5c-4.3 1.6-5.4 3.8-5.4 3.8c0.3-2.9 2.4-4 2.4-4c-5.3 2-4.7 5.2-4.7 5.2c-1.2-0.9-2.1-2.3-2.1-2.3 c-0.3-0.3-0.2-2.2-0.2-2.1C7.2 25 9 26.3 9 26.3c0.2-1.9 3.4-4.8 6.4-6.1c2.7-1.2 2.4-3.6 2.4-3.6c1 0.9 0.7 2.3 0.7 2.3 c2.2-1.6 0.5-5 0.5-5C23.6 18.4 19.7 21.5 17 22.5z M6 14.9c-0.4 0.2-1 0.6-1.2 0.6c-0.1 0-0.9-0.3-1.4-0.4 c-0.3 0-0.5-0.3-0.6-0.2c0-0.1 0.1-0.1 0.7-0.6c2.5-2.5 3.6-2.7 3.6-2.7l-0.2-0.6c0.1-0.1 0.4-0.5 0.8-1c0.3-0.3 0.7-0.5 1.1-0.7 c0 0 1.9-0.4 3 0.1l-0.2 1l0.4 0.1l-0.1 0.2c0 0 0.7-0.1 1.1 0c0.1 0 1.6 0.9 1.5 2.9c0 0-0.6-0.7-1.2-0.7c0 0 0.2 0.5 0.2 0.7 c0 0.4 0 2.2-2 3.1c0.6-0.9 0.8-1.7 0.8-1.7s-0.9 0.7-1 0.7c0 0-0.3-0.6-0.3-0.6c-0.5 1.2-2.5 0.8-2.4 1.4c0 0.5 0.9 1.3 0.9 1.3 l-1.9-0.3l1.8 1.2L8 18.4c0 0-0.1 0.5-0.5 0.7c-0.5 0.3-1-0.2-1-0.2c-1-0.8-1.9-1.1-1.9-1.1c-0.4-0.8-0.2-1-0.2-1 c0.4-0.3 0.6-0.6 0.6-0.6c0.3-0.6 0.9-1 1.2-1.2c0.5-0.4 0.1-1 0.1-1c-0.1 0-0.1 0-0.1 0C6.4 14.6 6 14.9 6 14.9z M15.8 10.1 c0 0-0.2-0.1-0.4-0.2c0 0 0 0 0-0.1c0.2-0.1 0.5-0.3 0.5-0.3s0-0.4-0.1-0.8c-0.2-0.5-0.1-0.7 0-0.8c0.1-0.2 0-0.2 0-0.2 c-0.5 0-0.7 0-1.2 0.4c-0.2 0.2-0.3 0.3-0.4 0.4c-0.2-0.1-0.6-0.1-0.6-0.1s0.7-1.2 2.1-1.3c0 0 0.4-0.1 0.5 0 c0.1 0.1 0.2 0.6 0.3 0.9c0.1 0.2 0.7 1.7-0.4 2.7c0 0-0.1 0.1-0.2 0.2C15.8 10.7 15.8 10.1 15.8 10.1z M22 7.1 c-0.1-0.1-0.2-0.2-0.2-0.2c-0.8-0.8-1.8-1.7-2-1.9L19 4.6l-0.3-0.2c-0.9-0.7-2.8-0.6-3.4-0.6c-0.2 0-0.3 0-0.3 0 c-0.2 0-0.4 0-0.6 0c-0.1 0-0.1 0-0.2 0c-0.1 0-0.2 0-0.4 0c-0.1 0-0.1 0-0.2 0c-0.1 0-0.2 0-0.3 0c-0.1 0-0.2 0-0.2 0 c-0.1 0-0.2 0-0.2 0.1c-0.4 0.1-0.7 0.2-1.1 0.3c0 0 0 0 0 0c-0.1 0-0.3 0.1-0.4 0.1c-1.4 0.5-2.2 1-2.2 1L9 5.8 C8.6 6 8.3 6.4 8.3 6.4C7.9 7 8 8.7 8.1 9c-0.7 0.8-1.4 1.8-1.5 1.8l0 0.5c-1.8 1-3.2 2.5-3.2 2.5c-0.7 0.5-1 0.9-1 0.9 c0 0 0.3 0.9 1.3 1.7c0 0.1 0.1 0.8 0.3 1.2l0.2 0.4c0 0.1-0.3 0.7-0.3 1c0 0 0 0.5 0.1 0.8c-0.1 0.1-0.2 0.6-0.1 1.3l0 0.1 L4 21.3c0 0 0.1-0.1 0.2-0.3c0 0.3 0.1 0.9 0.5 1.5l0 0.1l0-0.1c0 0 0.2-0.3 0.3-0.5c0 0.1 0 0.4 0.1 0.5l0 0l0 0 c0 0 0.3 0 0.5-0.1l0.7-0.2c0 0-0.3 2.7 0.8 4.5l-2-1.5c-2.5-1.8-4-4.7-4.1-7.7L0.8 4.5l10.7-3.5l10.7 3.5L22 7.1z"/></g><path fill="#FAFAFA" d="M5.9 18.9c-0.2-0.2-0.7-0.4-1.4-0.5c0 0-0.3 0.2-0.4 0.9c0 0.2 0.1 0.5 0.2 0.6l0 0l0 0 c0 0-0.2 0.4-0.1 0.8l0.1-0.1l0 0.2c0 0-0.1 0.7 0.4 1.4c0-0.2 0-0.5 0-0.7c0.1-0.3 0.4-0.5 0.7-0.8c-0.1 0.1-0.1 0.9 0.1 1.1 c0 0 0.2-0.3 0.4-0.5c0.4-0.5 0.9-0.1 1.1-0.5c0.2-0.5-0.3-0.9-0.4-1.1C6.4 19.6 6.1 19 5.9 18.9z"/><path fill="#FAFAFA" d="M35 10.5c1.7 0 2.6 0.2 2.6 0.2l5.8 18.1c0 0-0.7 0.2-2.2 0.2c-1.3 0-2-0.2-2-0.2L38.1 25h-6.4l-1.2 3.8 c0 0-0.7 0.2-2 0.2c-1.2 0-1.9-0.2-1.9-0.2l5.8-18.1C32.4 10.7 33.4 10.5 35 10.5z M34.8 14.3c0 0-0.2 1.4-0.7 3L32.6 22h4.5 l-1.5-4.7c-0.5-1.6-0.7-3-0.7-3H34.8z"/><path fill="#FAFAFA" d="M51.2 10.2c3.3 0 5.4 0.9 5.4 0.9c0 1.1-0.3 2.3-1 3c0 0-1.7-0.5-3.7-0.5c-2.2 0-3.3 0.7-3.3 2 c0 1.4 2.1 1.8 4.3 2.5c2.3 0.8 4.5 2.1 4.5 5.5c0 3.7-2.3 5.8-6.9 5.8c-3.8 0-6.1-1.3-6.1-1.3c0-1.1 0.4-2.3 1-3.1 c0 0 2.3 0.8 4.9 0.8c2 0 2.9-0.7 2.9-2c0-1.2-1.2-1.7-2.6-2.2c-2.6-0.8-6.1-1.6-6.1-5.7C44.5 12.4 46.6 10.2 51.2 10.2z"/><path fill="#FAFAFA" d="M59.9 10.7c0 0 0.8-0.2 2-0.2c1.3 0 2.1 0.2 2.1 0.2v15h7.2c0.2 0.5 0.3 1.1 0.3 1.7c0 0.6-0.1 1.1-0.3 1.7 H59.9V10.7z"/><path fill="#FAFAFA" d="M80.2 10.5c1.7 0 2.6 0.2 2.6 0.2l5.8 18.1c0 0-0.7 0.2-2.2 0.2c-1.3 0-2-0.2-2-0.2L83.3 25h-6.4l-1.2 3.8 c0 0-0.7 0.2-2 0.2c-1.2 0-1.9-0.2-1.9-0.2l5.8-18.1C77.7 10.7 78.6 10.5 80.2 10.5z M80.1 14.3c0 0-0.2 1.4-0.7 3L77.9 22h4.5 l-1.5-4.7c-0.5-1.6-0.7-3-0.7-3H80.1z"/><path fill="#FAFAFA" d="M95.5 19.4C94.5 17.2 94 15 94 15h-0.1c0 0 0.3 2.1 0.3 4.9v8.8c0 0-0.6 0.2-1.8 0.2 c-1.2 0-1.8-0.2-1.8-0.2V10.7c0 0 0.9-0.2 2.6-0.2c1.7 0 2.5 0.2 2.5 0.2l4.3 9.3c0.9 2.2 1.6 4.6 1.6 4.6h0.1c0 0-0.2-2.5-0.2-5.2 v-8.7c0 0 0.7-0.2 1.8-0.2c1.2 0 1.8 0.2 1.8 0.2v18.1c0 0-0.8 0.2-2.6 0.2c-1.6 0-2.6-0.2-2.6-0.2L95.5 19.4z"/><path fill="#FAFAFA" d="M32.4 0.5c0 0 0.1 0.2 0.1 0.5c0 0.3-0.1 0.5-0.1 0.5h-1.5v5.2c0 0-0.2 0.1-0.6 0.1c-0.4 0-0.6-0.1-0.6-0.1 V1.5h-1.6c0 0-0.1-0.2-0.1-0.5c0-0.3 0.1-0.5 0.1-0.5H32.4z"/><path fill="#FAFAFA" d="M37.8 0.5c0.1 0.1 0.1 0.3 0.1 0.4c0 0.2 0 0.3-0.1 0.5h-2.5v1.8h2c0.1 0.1 0.1 0.3 0.1 0.4 c0 0.2 0 0.3-0.1 0.5h-2v1.8h2.6c0.1 0.1 0.1 0.3 0.1 0.4c0 0.2 0 0.3-0.1 0.5h-3.7V0.5H37.8z"/><path fill="#FAFAFA" d="M41.9 0.5c0.4 0 0.7 0.1 0.7 0.1l2.1 6.1c0 0-0.2 0.1-0.6 0.1c-0.4 0-0.5-0.1-0.5-0.1l-0.5-1.4h-2.4 l-0.5 1.4c0 0-0.2 0.1-0.5 0.1c-0.3 0-0.5-0.1-0.5-0.1l2.1-6.1C41.3 0.6 41.6 0.5 41.9 0.5z M41.9 1.7c0 0-0.1 0.4-0.3 1L41 4.5 h1.8l-0.6-1.8C42 2.1 41.9 1.7 41.9 1.7L41.9 1.7z"/><path fill="#FAFAFA" d="M51.4 0.5c0.4 0 0.7 0.1 0.7 0.1v6.1c0 0-0.2 0.1-0.5 0.1c-0.4 0-0.6-0.1-0.6-0.1V4.8c0-1 0-2.2 0.1-2.9H51 c-0.1 0.6-0.6 1.5-1 2.2l-0.6 1.3c0 0-0.1 0-0.3 0c-0.2 0-0.3 0-0.3 0c-0.2-0.4-0.4-0.8-0.6-1.2c-0.4-0.8-0.8-1.7-1-2.3h-0.1 c0.1 0.6 0.1 1.7 0.1 2.7v2.1c0 0-0.2 0.1-0.5 0.1c-0.3 0-0.5-0.1-0.5-0.1V0.6c0 0 0.3-0.1 0.7-0.1c0.3 0 0.7 0.1 0.7 0.1l0.8 1.6 c0.3 0.6 0.6 1.3 0.7 1.7h0c0.1-0.3 0.2-0.6 0.3-0.9c0.4-0.8 0.8-1.6 1.1-2.4C50.9 0.6 51.2 0.5 51.4 0.5z"/></g></svg>
